<?xml version="1.0" encoding="iso-8859-1"?>
<!-- Generator: Adobe Illustrator 19.0.0, SVG Export Plug-In . SVG Version: 6.00 Build 0)  -->
<svg version="1.1" id="Capa_1" xmlns="http://www.w3.org/2000/svg" xmlns:xlink="http://www.w3.org/1999/xlink" x="0px" y="0px"
	 viewBox="0 0 512.001 512.001" style="enable-background:new 0 0 512.001 512.001;" xml:space="preserve">
<g transform="matrix(1.25 0 0 -1.25 0 45)">
	<g>
		<g>
			<path style="fill:#CCD6DD;" d="M76.122-262.152c-9.551,0-17.302-7.751-17.302-17.302s7.751-17.302,17.302-17.302
				s17.302,7.751,17.302,17.302C93.424-269.903,85.673-262.152,76.122-262.152z"/>
			<path style="fill:#CCD6DD;" d="M104.037-114.896c0.589,2.734,0.923,5.56,0.923,8.466c0,22.297-18.075,40.372-40.372,40.372
				c-20.347,0-37.004-15.088-39.796-34.663c-0.196,0-0.381,0.058-0.577,0.058c-12.734,0-23.07-10.324-23.07-23.07
				c0-12.734,10.336-23.07,23.07-23.07c0.381,0,0.727,0.092,1.096,0.115c-0.669-1.846-1.096-3.807-1.096-5.883
				c0-5.306,2.445-10.001,6.217-13.185c-3.829-4.118-6.217-9.586-6.217-15.653c0-12.734,10.336-23.07,23.07-23.07
				c0-4.326,1.269-8.317,3.333-11.778c-8.386-1.199-14.868-8.34-14.868-17.06c0-9.551,7.751-17.302,17.302-17.302
				s17.302,7.751,17.302,17.302c0,2.076-0.427,4.037-1.096,5.883c0.369-0.023,0.727-0.115,1.096-0.115
				c12.734,0,23.07,10.336,23.07,23.07c0,6.933-3.114,13.069-7.959,17.302c4.845,4.233,7.959,10.37,7.959,17.302
				c0,4.36-1.281,8.398-3.391,11.881c1.119-0.173,2.226-0.346,3.391-0.346c12.746,0,23.07,10.336,23.07,23.07
				C116.494-126.374,111.407-118.749,104.037-114.896z"/>
		</g>
		<g>
			<path style="fill:#E4EBEF;" d="M58.82-169.872c-6.367,0-11.535-5.168-11.535-11.535c0-6.379,5.168-11.535,11.535-11.535
				s11.535,5.156,11.535,11.535C70.354-175.039,65.187-169.872,58.82-169.872z"/>
			<path style="fill:#E4EBEF;" d="M93.424-112.197c0,12.746-10.324,23.07-23.07,23.07s-23.07-10.324-23.07-23.07
				c0-0.369,0.092-0.727,0.115-1.096c-1.846,0.669-3.807,1.096-5.883,1.096c-9.562,0-17.302-7.74-17.302-17.302
				s7.74-17.302,17.302-17.302c2.284,0,4.441,0.461,6.437,1.269c1.984-7.359,8.639-12.804,16.633-12.804
				c9.562,0,17.302,7.74,17.302,17.302c0,2.861-0.762,5.514-1.984,7.89C87.865-129.511,93.424-121.529,93.424-112.197z"/>
		</g>
		<path style="fill:#C1694F;" d="M77.411,2.274l-8.167,8.167c-8.996,8.997-23.612,8.997-32.62-0.012l-8.155-8.155
			c-9.009-9.009-9.009-23.612,0-32.621l8.155-8.167c9.009-8.997,23.624-8.997,32.621,0l8.167,8.167
			C86.42-21.338,86.42-6.736,77.411,2.274z"/>
	</g>
	<path style="fill:#A95233;" d="M76.443-0.15c-1.114,3.112-2.913,6.035-5.406,8.527l-8.155,8.155
		c-4.511,4.511-10.416,6.76-16.31,6.76c-5.634,0-11.256-2.053-15.667-6.147l-9.403-9.402c-8.395-9.048-8.193-23.177,0.615-31.975
		l8.155-8.155c2.58-2.583,5.621-4.424,8.856-5.527c2.545,1.284,4.992,3.031,7.191,5.233L70.796-8.215
		C73.246-5.765,75.132-3.009,76.443-0.15z"/>
	<g>
		<path style="fill:#C1694F;" d="M64.361,31.641c7.209-7.209,5.745-20.359-3.265-29.368L36.631-22.193
			c-9.009-9.008-22.159-10.473-29.368-3.264l0.219-0.208C0.272-18.455,1.737-5.317,10.746,3.692l24.466,24.465
			c9.009,9.009,22.147,10.474,29.357,3.265L64.361,31.641z"/>
		<path style="fill:#264612;" d="M395.766-236.626c0,0-48.124,48.113-58.448,58.448c-42.264,42.264-84.471,47.767-165.619,80.122
			c-7.048-7.048-22.24-22.24-22.24-22.24s-7.048-7.048-14.085-14.085c37.27-76.246,37.327-123.874,79.591-166.138
			c42.253-42.264,58.47-58.459,58.47-58.459c11.454-11.465,20.613-20.878,32.09-9.413l96.997,97.032
			C414.003-259.881,407.221-248.08,395.766-236.626"/>
		<path style="fill:#FFE8B6;" d="M180.122-102.55c0,0,20.059-7.44-6.46-33.948c-24.477-24.477-33.647-7.51-33.647-7.51
			l-39.761,39.761l40.788,40.776L180.122-102.55z"/>
		<path style="fill:#FFD983;" d="M144.579-67.008l-11.696,11.696L92.095-96.088l11.696-11.708
			c11.465-11.454,9.459-12.158,30.498,8.882l6.829,6.851C157.764-75.418,156.034-78.463,144.579-67.008"/>
		<path style="fill:#264612;" d="M136.962-43.072c6.76-6.76,6.76-17.718-0.012-24.477l-32.609-32.609
			c-6.76-6.771-17.718-6.771-24.477-0.012c-6.76,6.76-6.76,17.718,0.012,24.477l32.609,32.609
			C119.244-36.324,130.202-36.312,136.962-43.072"/>
		<path style="fill:#FFE8B6;" d="M320.485-193.968c-9.009,8.997-23.624,8.997-32.632,0l-57.086-57.098
			c-9.02-8.997-9.02-23.612,0-32.621l48.931-48.943c9.009-9.009,23.624-9.009,32.632,0l57.086,57.098
			c9.009,9.009,9.009,23.624,0,32.621L320.485-193.968z"/>
	</g>
</g>
<g>
</g>
<g>
</g>
<g>
</g>
<g>
</g>
<g>
</g>
<g>
</g>
<g>
</g>
<g>
</g>
<g>
</g>
<g>
</g>
<g>
</g>
<g>
</g>
<g>
</g>
<g>
</g>
<g>
</g>
</svg>
